<svg xmlns="http://www.w3.org/2000/svg" viewBox="0 0 1417.46 250.71"><defs><style>.cls-1{fill:#fff}</style></defs><title>beIN SPORTS</title><g id="Layer_2" data-name="Layer 2"><path class="cls-1" d="M746.08 116.3c-11.36 0-19.53-2.45-24.31-7.27a13 13 0 0 1-4.08-8.72c0-.09-.62-9.8 6.08-17 4.91-5.26 12.44-7.92 22.41-7.92 9.52 0 16.75 2.64 21.55 7.84 7.3 7.91 6.44 19.28 6.41 19.5a8.1 8.1 0 0 0 16.2 0c0-43-42.44-43.5-44.25-43.5h-.2c-43.13 0-44.37 36.63-44.37 40.8 0 12.18 9.41 32.77 44.67 32.77 11.91 0 20.43 2.58 25.37 7.66a15.42 15.42 0 0 1 4.44 11.23c.09 2.21-.12 9.9-5.91 15.88-5 5.2-13 7.84-23.62 7.84h-.17c-9.56 0-16.91-2.71-21.86-8a25.32 25.32 0 0 1-6.5-17.68 8.2 8.2 0 0 0-16.41 0 39.72 39.72 0 0 0 11.2 29c8.27 8.47 20.09 13.13 33.31 13.13 34.3 0 46.47-21.62 46.47-40.14-.03-21.53-18.23-35.42-46.43-35.42zm553.79 0c-11.34 0-19.53-2.45-24.33-7.27a13.07 13.07 0 0 1-4.05-8.73c0-.09-.63-9.79 6.09-17 4.88-5.26 12.41-7.92 22.4-7.92 9.51 0 16.74 2.64 21.54 7.84 7.3 7.92 6.44 19.28 6.42 19.51a8.09 8.09 0 0 0 16.17 0c0-43-42.42-43.5-44.23-43.5h-.2c-43.14 0-44.39 36.62-44.39 40.8 0 12.17 9.42 32.77 44.7 32.77 11.88 0 20.42 2.58 25.37 7.67a15.46 15.46 0 0 1 4.44 11.21c.07 2.21-.12 9.9-5.92 15.88-5 5.2-13 7.84-23.62 7.84h-.17c-9.58 0-16.92-2.71-21.86-8a25.34 25.34 0 0 1-6.5-17.68 8.2 8.2 0 0 0-16.41 0 39.69 39.69 0 0 0 11.2 29c8.27 8.47 20.08 13.13 33.31 13.13 34.31 0 46.48-21.62 46.48-40.15-.02-21.5-18.25-35.4-46.44-35.4zm-446-57.07c-26.16 0-44.41 18.34-44.41 44.59l.09 77.23a8.28 8.28 0 1 0 16.55 0v-32.73h27.77a44.55 44.55 0 0 0 0-89.09zm-.12 72.77h-27.62l-.06-28.21c0-17 11.12-28.44 27.69-28.44a28.32 28.32 0 1 1 0 56.65zm123.73-72.77a66.3 66.3 0 1 0 66.28 66.33 66.4 66.4 0 0 0-66.28-66.33zm0 116.53a50.22 50.22 0 1 1 50.19-50.2 50.28 50.28 0 0 1-50.19 50.2zm140.15-30.11a44.78 44.78 0 0 0-16.41-86.42c-26.3 0-44.67 18.45-44.67 44.86l.07 77a8.33 8.33 0 0 0 16.66 0v-32.27h26.45l22 36a8.4 8.4 0 0 0 15.42-2 8.18 8.18 0 0 0-.84-6.36zm-44.37-13.25v-28.38c0-17.12 11.19-28.62 27.86-28.62a28.5 28.5 0 1 1 0 57zM1246 70.11a8.32 8.32 0 0 1-8.28 8.33h-28.8V181a8.33 8.33 0 0 1-16.66 0V78.43h-28.79a8.32 8.32 0 0 1 0-16.65h74.26a8.31 8.31 0 0 1 8.27 8.33zm-1165.54 56a52.28 52.28 0 1 1 52.27 52.57 52.48 52.48 0 0 1-52.25-52.56zM1417.46 0v187.32a63.35 63.35 0 0 1-17.68 43.16 65.81 65.81 0 0 1-48.16 20.23H65.81C25.16 250.71 0 217.16 0 185.91V0zM80.3 87.66v-63.9a6.17 6.17 0 1 0-12.34 0v104.7c0 30.41 24.84 63.25 65 63.25 38.88 0 65-33.92 65-65.59 0-40-33.75-64.71-65-64.71-29.27-.01-46.21 17.72-52.66 26.25zM322.64 120h-61.09a6.42 6.42 0 0 0 0 12.84h67.8a6 6 0 0 0 6.44-6.27 65.12 65.12 0 1 0-9.72 34.25 6.39 6.39 0 0 0-1.84-8.79 6.33 6.33 0 0 0-8.85 1.8 52.41 52.41 0 1 1 7.26-33.83zm37 71.71h.05c6.91 0 12.12-5.55 12.48-10.49v-109c-.36-4.94-5.56-10.45-12.47-10.48h-.06c-7 0-12.08 5.44-12.47 10.59v108.89c.44 5.05 5.56 10.45 12.52 10.48zm202-39.47v-80.4c-.41-5-5.45-10.38-12.35-10.41-6.78 0-12 5.52-12.34 10.57v80.31c0 2.2-1.47 9.2-8 12.31-13.64 6.48-20.66-4.83-21-5.32l-50.01-78.87c-6.58-11.42-25.25-25.12-49.73-16-24 9.87-24.59 35-24.59 35.3v82c.41 4.8 5.3 10 12.55 10 6.65 0 12.25-5.23 12.25-11.39v-78.47c-.05-.58-.84-14.12 15.36-15.59 9.38-.53 14.14 9.29 14.25 9.52 1.88 3.06 45.62 72.16 50.27 79.22 3.68 5.61 15.27 16.7 32.39 16.7a45.08 45.08 0 0 0 17-3.51c25.31-10.29 24.05-35.8 24.04-35.98zM1408.09 9.38H632.47v173.56c0 24.05-15.58 49-41.92 58.4h752.72c18.46 0 35.3-7 47.44-19.73a62.4 62.4 0 0 0 17.39-42.46z" id="Layer_1-2" data-name="Layer 1"/></g></svg>